<svg width="205" height="211" viewBox="0 0 205 211" xmlns="http://www.w3.org/2000/svg" xmlns:xlink="http://www.w3.org/1999/xlink"><title>Cube</title><desc>Created using Figma</desc><g><g><g transform="translate(-3426 412)"><use xlink:href="#a" transform="translate(3482.5 -411.5)" fill="url(#b)"/><mask id="c"><use xlink:href="#a" fill="#fff" transform="translate(3482.5 -411.5)"/></mask><g mask="url(#c)"><use xlink:href="#d" transform="translate(3482.5 -411.5)" fill="url(#e)"/></g></g><g transform="translate(-3426 412)"><use xlink:href="#f" transform="rotate(90 1952 1678)" fill="url(#g)"/><mask id="h"><use xlink:href="#f" fill="#fff" transform="rotate(90 1952 1678)"/></mask><g mask="url(#h)"><use xlink:href="#i" transform="rotate(90 1952 1678)" fill="url(#j)"/></g></g><g transform="translate(-3426 412)"><use xlink:href="#k" transform="translate(3573 -412)" fill="url(#l)" fill-opacity=".76"/><mask id="m"><use xlink:href="#k" fill="#fff" transform="translate(3573 -412)"/></mask><g mask="url(#m)"><use xlink:href="#n" transform="translate(3573 -412)" fill="url(#o)"/></g></g><g transform="translate(-3426 412)"><use xlink:href="#p" transform="translate(3426 -411.5)" fill="url(#q)"/><mask id="r"><use xlink:href="#p" fill="#fff" transform="translate(3426 -411.5)"/></mask><g mask="url(#r)"><use xlink:href="#s" transform="translate(3426 -411.5)" fill="url(#t)"/></g></g><g transform="translate(-3426 412)"><use xlink:href="#u" transform="rotate(90 2021.5 1609.5)" fill="url(#v)" fill-opacity=".8"/><mask id="w"><use xlink:href="#u" fill="#fff" transform="rotate(90 2021.5 1609.5)"/></mask><g mask="url(#w)"><use xlink:href="#x" transform="rotate(90 2021.5 1609.5)" fill="url(#y)"/></g></g><g transform="translate(-3426 412)"><use xlink:href="#z" transform="translate(3426 -349.5)" fill="url(#A)" fill-opacity=".04"/><mask id="B"><use xlink:href="#z" fill="#fff" transform="translate(3426 -349.5)"/></mask><g mask="url(#B)"><use xlink:href="#C" transform="translate(3426 -349.5)" fill="url(#D)"/></g></g></g></g><defs><linearGradient id="b" x2="1" gradientUnits="userSpaceOnUse" gradientTransform="matrix(0 138 -148.5 0 148.5 0)"><stop offset="0" stop-color="#514A9D"/><stop offset="1" stop-color="#56CCF2"/></linearGradient><linearGradient id="e" x2="1" gradientUnits="userSpaceOnUse" gradientTransform="matrix(0 138 -148.5 0 148.5 0)"><stop offset="0" stop-color="#FFF" stop-opacity=".6"/><stop offset="1" stop-color="#FFF" stop-opacity="0"/></linearGradient><linearGradient id="g" x2="1" gradientUnits="userSpaceOnUse" gradientTransform="matrix(0 210.5 -57.5 0 57.5 -63)"><stop offset="0" stop-color="#514A9D"/><stop offset="1" stop-color="#56CCF2"/></linearGradient><linearGradient id="j" x2="1" gradientUnits="userSpaceOnUse" gradientTransform="matrix(0 204 -72.5 0 72.5 0)"><stop offset="0" stop-color="#FFF" stop-opacity=".6"/><stop offset="1" stop-color="#FFF" stop-opacity="0"/></linearGradient><linearGradient id="l" x2="1" gradientUnits="userSpaceOnUse" gradientTransform="matrix(0 210.5 -57.5 0 57.5 0)"><stop offset="0" stop-color="#514A9D"/><stop offset="1" stop-color="#56CCF2"/></linearGradient><linearGradient id="o" x2="1" gradientUnits="userSpaceOnUse" gradientTransform="matrix(0 210.5 -57.5 0 57.5 0)"><stop offset="0" stop-color="#FFF" stop-opacity=".6"/><stop offset="1" stop-color="#FFF" stop-opacity="0"/></linearGradient><linearGradient id="q" x2="1" gradientUnits="userSpaceOnUse" gradientTransform="matrix(0 210.5 -57.5 0 57.5 0)"><stop offset="0" stop-color="#514A9D"/><stop offset="1" stop-color="#56CCF2"/></linearGradient><linearGradient id="t" x2="1" gradientUnits="userSpaceOnUse" gradientTransform="matrix(0 210.5 -57.5 0 57.5 0)"><stop offset="0" stop-color="#FFF" stop-opacity=".6"/><stop offset="1" stop-color="#FFF" stop-opacity="0"/></linearGradient><linearGradient id="v" x2="1" gradientUnits="userSpaceOnUse" gradientTransform="matrix(0 210.5 -57.5 0 57.5 -62.5)"><stop offset="0" stop-color="#514A9D"/><stop offset="1" stop-color="#56CCF2"/></linearGradient><linearGradient id="y" x2="1" gradientUnits="userSpaceOnUse" gradientTransform="matrix(0 204.5 -63 0 63 0)"><stop offset="0" stop-color="#FFF" stop-opacity=".6"/><stop offset="1" stop-color="#FFF" stop-opacity="0"/></linearGradient><linearGradient id="A" x2="1" gradientUnits="userSpaceOnUse" gradientTransform="matrix(0 148 -148 0 148 0)"><stop offset="0" stop-color="#514A9D"/><stop offset="1" stop-color="#56CCF2"/></linearGradient><linearGradient id="D" x2="1" gradientUnits="userSpaceOnUse" gradientTransform="matrix(0 148 -148 0 148 0)"><stop offset="0" stop-color="#FFF" stop-opacity=".6"/><stop offset="1" stop-color="#FFF" stop-opacity="0"/></linearGradient><path id="a" d="M.496.996C.498.446.946 0 1.496 0H148.5l-1 137L0 138 .496.996z"/><path id="d" d="M148.5 0l14 .102.103-14.102H148.5V0zm-1 137l.095 14 13.804-.094.1-13.804-14-.102zM0 138l-14-.05-.05 14.146L.094 152 0 138zM1.496 14H148.5v-28H1.496v28zM134.5-.102l-1 137 28 .204 1-137-28-.204zM147.405 123l-147.5 1 .19 28 147.5-1-.19-28zM14 138.05l.496-137.003-28-.1L-14 137.948l28 .1zM1.496-14c-8.263 0-14.97 6.683-15 14.946l28 .1C14.47 8.21 8.658 14 1.496 14v-28z"/><path id="f" d="M0 0l72.118 56.7c.24.19.382.48.382.786V204L0 146.5V0z"/><path id="i" d="M0 0l8.653-11.006L-14-28.816V0H0zm72.118 56.7l-8.653 11.005L72.118 56.7zM72.5 204l-8.7 10.97 22.7 18.002V204h-14zM0 146.5h-14v6.765l5.3 4.204L0 146.5zM-8.653 11.006l72.118 56.7L80.77 45.694l-72.117-56.7-17.306 22.012zM58.5 57.486V204h28V57.486h-28zM81.2 193.03l-72.5-57.5-17.4 21.94 72.5 57.5 17.4-21.94zM14 146.5V0h-28v146.5h28zm49.465-78.794C60.33 65.24 58.5 61.474 58.5 57.486h28c0-4.6-2.112-8.948-5.73-11.792l-17.305 22.01z"/><path id="k" d="M0 62.5L55.764 1.887c.617-.67 1.736-.234 1.736.677V137.5L0 210.5v-148z"/><path id="n" d="M0 62.5l-10.303-9.48L-14 57.04v5.46H0zM55.764 1.887L45.46-7.593l10.304 9.48zM57.5 137.5l10.998 8.663 3.002-3.81V137.5h-14zM0 210.5h-14v40.4l24.998-31.737L0 210.5zM10.303 71.98l55.764-60.614L45.46-7.592-10.302 53.02l20.606 18.96zM43.5 2.563V137.5h28V2.564h-28zm3.002 126.273l-57.5 73 21.996 17.326 57.5-73-21.996-17.326zM14 210.5v-148h-28v148h28zM66.067 11.366C58.047 20.082 43.5 14.41 43.5 2.564h28c0-13.667-16.786-20.214-26.04-10.156l20.607 18.958z"/><path id="p" d="M0 62.5L57.5 0v137.5L0 210.5v-148z"/><path id="s" d="M0 62.5l-10.303-9.48L-14 57.04v5.46H0zM57.5 0h14v-35.895L47.197-9.48 57.5 0zm0 137.5l10.998 8.663 3.002-3.81V137.5h-14zM0 210.5h-14v40.4l24.998-31.737L0 210.5zM10.303 71.98l57.5-62.5L47.197-9.48l-57.5 62.5 20.606 18.96zM43.5 0v137.5h28V0h-28zm3.002 128.837l-57.5 73 21.996 17.326 57.5-73-21.996-17.326zM14 210.5v-148h-28v148h28z"/><path id="u" d="M0 0l62.67 56.702c.21.19.33.46.33.742V204.5L0 148V0z"/><path id="x" d="M0 0l9.393-10.382L-14-31.546V0H0zm62.67 56.702L53.28 67.084l9.393-10.382zM63 204.5l-9.347 10.423L77 235.86V204.5H63zM0 148h-14v6.25l4.653 4.173L0 148zM-9.393 10.38l62.67 56.704L72.065 46.32 9.394-10.38-9.394 10.382zM49 57.445V204.5h28V57.444H49zm23.347 136.633l-63-56.5-18.694 20.846 63 56.5 18.694-20.846zM14 148V0h-28v148h28zm39.278-80.916C50.554 64.62 49 61.117 49 57.444h28c0-4.24-1.793-8.28-4.936-11.123L53.278 67.085z"/><path id="z" d="M0 0h148v146c0 1.105-.895 2-2 2H2c-1.105 0-2-.895-2-2V0z"/><path id="C" d="M0 0v-14h-14V0H0zm148 0h14v-14h-14V0zM0 14h148v-28H0v28zM134 0v146h28V0h-28zm12 134H2v28h144v-28zM14 146V0h-28v146h28zm120 0c0-6.627 5.373-12 12-12v28c8.837 0 16-7.163 16-16h-28zM2 134c6.627 0 12 5.373 12 12h-28c0 8.837 7.163 16 16 16v-28z"/></defs></svg>