<svg width="205" height="211" viewBox="0 0 205 211" xmlns="http://www.w3.org/2000/svg" xmlns:xlink="http://www.w3.org/1999/xlink"><title>Cube</title><desc>Created using Figma</desc><g><g><g transform="translate(-2957 -965)"><use xlink:href="#a" transform="translate(3013.5 965.5)"/><mask id="b"><use xlink:href="#a" fill="#fff" transform="translate(3013.5 965.5)"/></mask><g mask="url(#b)"><use xlink:href="#c" transform="translate(3013.5 965.5)" fill="#FFF"/></g></g><g transform="translate(-2957 -965)"><use xlink:href="#d" transform="translate(3104 965)"/><mask id="e"><use xlink:href="#d" fill="#fff" transform="translate(3104 965)"/></mask><g mask="url(#e)"><use xlink:href="#f" transform="translate(3104 965)" fill="#FFF"/></g></g><g transform="translate(-2957 -965)"><use xlink:href="#g" transform="translate(2957 965.5)"/><mask id="h"><use xlink:href="#g" fill="#fff" transform="translate(2957 965.5)"/></mask><g mask="url(#h)"><use xlink:href="#i" transform="translate(2957 965.5)" fill="#FFF"/></g></g><g transform="translate(-2957 -965)"><use xlink:href="#j" transform="translate(2957 1027.5)"/><mask id="k"><use xlink:href="#j" fill="#fff" transform="translate(2957 1027.5)"/></mask><g mask="url(#k)"><use xlink:href="#l" transform="translate(2957 1027.5)" fill="#FFF"/></g></g></g></g><defs><path id="a" d="M.496.996C.498.446.946 0 1.496 0H148.5l-1 137L0 138 .496.996z"/><path id="c" d="M148.5 0l5 .036.037-5.036H148.5v5zm-1 137l.034 5 4.93-.034.036-4.93-5-.036zM0 138l-5-.018-.018 5.052L.034 143 0 138zM1.496 5H148.5V-5H1.496V5zM143.5-.036l-1 137 10 .072 1-137-10-.072zM147.466 132l-147.5 1 .068 10 147.5-1-.068-10zM5 138.018L5.496 1.014l-10-.036L-5 137.982l10 .036zM1.496-5c-3.305 0-5.988 2.673-6 5.978l10 .036C5.488 3.218 3.7 5 1.496 5V-5z"/><path id="d" d="M0 62.5L55.764 1.887c.617-.67 1.736-.234 1.736.677V137.5L0 210.5v-148z"/><path id="f" d="M0 62.5l-3.68-3.385L-5 60.55v1.95h5zM55.764 1.887l-3.68-3.385 3.68 3.385zM57.5 137.5l3.928 3.094 1.072-1.36V137.5h-5zM0 210.5h-5v14.428l8.928-11.334L0 210.5zM3.68 65.885L59.444 5.272l-7.36-6.77L-3.68 59.115l7.36 6.77zM52.5 2.565V137.5h10V2.564h-10zm1.072 131.84l-57.5 73 7.856 6.19 57.5-73-7.856-6.19zM5 210.5v-148H-5v148H5zM59.444 5.272c-2.468 2.682-6.944.936-6.944-2.708h10c0-5.467-6.714-8.086-10.416-4.062l7.36 6.77z"/><path id="g" d="M0 62.5L57.5 0v137.5L0 210.5v-148z"/><path id="i" d="M0 62.5l-3.68-3.385L-5 60.55v1.95h5zM57.5 0h5v-12.82l-8.68 9.435L57.5 0zm0 137.5l3.928 3.094 1.072-1.36V137.5h-5zM0 210.5h-5v14.428l8.928-11.334L0 210.5zM3.68 65.885l57.5-62.5-7.36-6.77-57.5 62.5 7.36 6.77zM52.5 0v137.5h10V0h-10zm1.072 134.406l-57.5 73 7.856 6.188 57.5-73-7.856-6.188zM5 210.5v-148H-5v148H5z"/><path id="j" d="M0 0h148v146c0 1.105-.895 2-2 2H2c-1.105 0-2-.895-2-2V0z"/><path id="l" d="M0 0v-5h-5v5h5zm148 0h5v-5h-5v5zM0 5h148V-5H0V5zm143-5v146h10V0h-10zm3 143H2v10h144v-10zM5 146V0H-5v146H5zm138 0c0-1.657 1.343-3 3-3v10c3.866 0 7-3.134 7-7h-10zM2 143c1.657 0 3 1.343 3 3H-5c0 3.866 3.134 7 7 7v-10z"/></defs></svg>